<svg width="314" height="127" viewBox="0 0 314 127" fill="none" xmlns="http://www.w3.org/2000/svg">
<path fill-rule="evenodd" clip-rule="evenodd" d="M3.94264 1C3.94264 1 11.8878 13.8699 25.4239 20.0124C38.9601 26.1548 41.9027 30.5423 41.9027 30.5423C41.9027 30.5423 46.611 35.8072 53.0848 38.1472C59.5586 40.4872 56.9102 27.3248 68.9751 33.7597C68.9751 33.7597 71.6234 35.8072 69.8579 39.3172L80.4514 36.3922C80.4514 36.3922 82.8055 35.5147 94.2818 35.5147C105.758 35.5147 108.995 32.8823 118.411 27.0323C118.411 27.0323 115.469 30.5423 112.526 32.2973C112.526 32.2973 117.529 30.8348 119 28.4948C119 28.4948 118.411 31.1273 113.115 33.1748C113.115 33.1748 116.352 32.5898 117.529 31.7123C117.529 31.7123 114.586 34.6372 111.349 35.5147C111.349 35.5147 111.938 35.8072 112.526 35.8072C112.526 35.8072 111.349 36.9772 107.818 37.5622C107.818 37.5622 107.818 37.8547 107.524 38.1472C107.524 38.1472 104.875 40.1947 102.521 39.6097C102.521 39.6097 101.05 41.0722 97.2244 41.3647C97.2244 41.3647 94.8703 42.8272 93.1047 42.8272C93.1047 42.8272 92.8105 43.9972 90.4564 44.5822C90.4564 44.5822 88.6908 46.3372 85.7481 46.3372C85.7481 46.3372 84.2768 48.9696 82.217 48.0921C82.217 48.0921 79.8628 50.7246 78.3915 49.5546C78.3915 49.5546 76.0374 51.6021 74.5661 51.0171C74.5661 51.0171 72.212 53.6496 70.7407 52.4796C70.7407 52.4796 67.2095 54.8196 66.0324 53.6496C66.0324 53.6496 65.1496 55.1121 64.8554 54.8196C64.8554 54.8196 63.0898 57.7446 58.0873 62.4245C58.0873 62.4245 55.4389 66.227 55.1446 66.5195C54.8504 66.812 56.616 116.829 55.7332 122.387C54.8504 127.944 53.6733 126.189 53.3791 122.387C53.0848 118.584 52.202 108.054 52.4963 106.884C52.4963 106.884 50.7307 107.762 50.4364 104.544C50.1421 101.327 50.4364 89.0418 50.4364 89.0418C50.4364 89.0418 47.788 90.2118 48.3766 83.1919C48.3766 83.1919 45.7282 88.1643 45.4339 82.0219C45.4339 82.0219 40.7257 83.4844 41.9027 79.9744C41.9027 79.9744 34.8404 86.7018 33.9576 84.6544C33.9576 84.6544 14.2419 108.932 11.2993 111.564C8.35661 114.197 4.53117 116.244 8.94514 110.394C8.94514 110.394 37.783 72.662 40.7257 70.0295C40.7257 70.0295 43.3741 66.227 43.9626 65.3495C44.5511 64.472 46.3167 59.7921 46.0224 55.9896C46.0224 55.9896 45.4339 54.2346 45.1397 53.6496C45.1397 53.6496 42.197 53.3571 42.197 51.6021C42.197 51.6021 39.2544 51.0171 39.2544 49.5546C39.2544 49.5546 35.7232 49.2621 36.0175 47.2146C36.0175 47.2146 31.3092 46.3372 31.3092 43.4122C31.3092 43.4122 27.4838 42.5347 28.0723 40.1947C28.0723 40.1947 23.9526 39.3172 24.8354 36.9772C24.8354 36.9772 20.4214 34.9297 21.8928 33.1748C21.8928 33.1748 18.0673 32.0048 18.9501 29.9573C18.9501 29.9573 15.1247 28.7873 16.3017 26.1548C16.3017 26.1548 10.4165 22.9373 13.0648 21.7673C13.0648 21.7673 8.35661 19.7199 10.4165 18.8424C10.4165 18.8424 2.47132 16.2099 8.35661 15.9174C8.35661 15.9174 -7.82793 7.43495 8.94514 13.2849C8.94514 13.2849 1.58853 8.89744 1 6.55746C1 6.55746 6.00249 10.3599 7.76808 10.6524C7.76808 10.6524 0.705736 3.63248 1.58853 3.33998C1.58853 3.33998 7.47382 9.48244 10.4165 10.6524C10.4165 10.6524 3.35411 1.87749 3.35411 1.2925C3.35411 0.707502 3.94264 1 3.94264 1Z" fill="#EA4F3C"/>
<path fill-rule="evenodd" clip-rule="evenodd" d="M3.94264 1C3.94264 1 11.8878 13.8699 25.4239 20.0124C38.9601 26.1548 41.9027 30.5423 41.9027 30.5423C41.9027 30.5423 46.611 35.8072 53.0848 38.1472C59.5586 40.4872 56.9102 27.3248 68.9751 33.7597C68.9751 33.7597 71.6234 35.8072 69.8579 39.3172L80.4514 36.3922C80.4514 36.3922 82.8055 35.5147 94.2818 35.5147C105.758 35.5147 108.995 32.8823 118.411 27.0323C118.411 27.0323 115.469 30.5423 112.526 32.2973C112.526 32.2973 117.529 30.8348 119 28.4948C119 28.4948 118.411 31.1273 113.115 33.1748C113.115 33.1748 116.352 32.5898 117.529 31.7123C117.529 31.7123 114.586 34.6372 111.349 35.5147C111.349 35.5147 111.938 35.8072 112.526 35.8072C112.526 35.8072 111.349 36.9772 107.818 37.5622C107.818 37.5622 107.818 37.8547 107.524 38.1472C107.524 38.1472 104.875 40.1947 102.521 39.6097C102.521 39.6097 101.05 41.0722 97.2244 41.3647C97.2244 41.3647 94.8703 42.8272 93.1047 42.8272C93.1047 42.8272 92.8105 43.9972 90.4564 44.5822C90.4564 44.5822 88.6908 46.3372 85.7481 46.3372C85.7481 46.3372 84.2768 48.9696 82.217 48.0921C82.217 48.0921 79.8628 50.7246 78.3915 49.5546C78.3915 49.5546 76.0374 51.6021 74.5661 51.0171C74.5661 51.0171 72.212 53.6496 70.7407 52.4796C70.7407 52.4796 67.2095 54.8196 66.0324 53.6496C66.0324 53.6496 65.1496 55.1121 64.8554 54.8196C64.8554 54.8196 63.0898 57.7446 58.0873 62.4245C58.0873 62.4245 55.4389 66.227 55.1446 66.5195C54.8504 66.812 56.616 116.829 55.7332 122.387C54.8504 127.944 53.6733 126.189 53.3791 122.387C53.0848 118.584 52.202 108.054 52.4963 106.884C52.4963 106.884 50.7307 107.762 50.4364 104.544C50.1421 101.327 50.4364 89.0418 50.4364 89.0418C50.4364 89.0418 47.788 90.2118 48.3766 83.1919C48.3766 83.1919 45.7282 88.1643 45.4339 82.0219C45.4339 82.0219 40.7257 83.4844 41.9027 79.9744C41.9027 79.9744 34.8404 86.7018 33.9576 84.6544C33.9576 84.6544 14.2419 108.932 11.2993 111.564C8.35661 114.197 4.53117 116.244 8.94514 110.394C8.94514 110.394 37.783 72.662 40.7257 70.0295C40.7257 70.0295 43.3741 66.227 43.9626 65.3495C44.5511 64.472 46.3167 59.7921 46.0224 55.9896C46.0224 55.9896 45.4339 54.2346 45.1397 53.6496C45.1397 53.6496 42.197 53.3571 42.197 51.6021C42.197 51.6021 39.2544 51.0171 39.2544 49.5546C39.2544 49.5546 35.7232 49.2621 36.0175 47.2146C36.0175 47.2146 31.3092 46.3372 31.3092 43.4122C31.3092 43.4122 27.4838 42.5347 28.0723 40.1947C28.0723 40.1947 23.9526 39.3172 24.8354 36.9772C24.8354 36.9772 20.4214 34.9297 21.8928 33.1748C21.8928 33.1748 18.0673 32.0048 18.9501 29.9573C18.9501 29.9573 15.1247 28.7873 16.3017 26.1548C16.3017 26.1548 10.4165 22.9373 13.0648 21.7673C13.0648 21.7673 8.35661 19.7199 10.4165 18.8424C10.4165 18.8424 2.47132 16.2099 8.35661 15.9174C8.35661 15.9174 -7.82793 7.43495 8.94514 13.2849C8.94514 13.2849 1.58853 8.89744 1 6.55746C1 6.55746 6.00249 10.3599 7.76808 10.6524C7.76808 10.6524 0.705736 3.63248 1.58853 3.33998C1.58853 3.33998 7.47382 9.48244 10.4165 10.6524C10.4165 10.6524 3.35411 1.87749 3.35411 1.2925C3.35411 0.707502 3.94264 1 3.94264 1Z" fill="url(#paint0_linear)" style="mix-blend-mode:lighten"/>
<path fill-rule="evenodd" clip-rule="evenodd" d="M3.94264 1C3.94264 1 11.8878 13.8699 25.4239 20.0124C38.9601 26.1548 41.9027 30.5423 41.9027 30.5423C41.9027 30.5423 46.611 35.8072 53.0848 38.1472C59.5586 40.4872 56.9102 27.3248 68.9751 33.7597C68.9751 33.7597 71.6234 35.8072 69.8579 39.3172L80.4514 36.3922C80.4514 36.3922 82.8055 35.5147 94.2818 35.5147C105.758 35.5147 108.995 32.8823 118.411 27.0323C118.411 27.0323 115.469 30.5423 112.526 32.2973C112.526 32.2973 117.529 30.8348 119 28.4948C119 28.4948 118.411 31.1273 113.115 33.1748C113.115 33.1748 116.352 32.5898 117.529 31.7123C117.529 31.7123 114.586 34.6372 111.349 35.5147C111.349 35.5147 111.938 35.8072 112.526 35.8072C112.526 35.8072 111.349 36.9772 107.818 37.5622C107.818 37.5622 107.818 37.8547 107.524 38.1472C107.524 38.1472 104.875 40.1947 102.521 39.6097C102.521 39.6097 101.05 41.0722 97.2244 41.3647C97.2244 41.3647 94.8703 42.8272 93.1047 42.8272C93.1047 42.8272 92.8105 43.9972 90.4564 44.5822C90.4564 44.5822 88.6908 46.3372 85.7481 46.3372C85.7481 46.3372 84.2768 48.9696 82.217 48.0921C82.217 48.0921 79.8628 50.7246 78.3915 49.5546C78.3915 49.5546 76.0374 51.6021 74.5661 51.0171C74.5661 51.0171 72.212 53.6496 70.7407 52.4796C70.7407 52.4796 67.2095 54.8196 66.0324 53.6496C66.0324 53.6496 65.1496 55.1121 64.8554 54.8196C64.8554 54.8196 63.0898 57.7446 58.0873 62.4245C58.0873 62.4245 55.4389 66.227 55.1446 66.5195C54.8504 66.812 56.616 116.829 55.7332 122.387C54.8504 127.944 53.6733 126.189 53.3791 122.387C53.0848 118.584 52.202 108.054 52.4963 106.884C52.4963 106.884 50.7307 107.762 50.4364 104.544C50.1421 101.327 50.4364 89.0418 50.4364 89.0418C50.4364 89.0418 47.788 90.2118 48.3766 83.1919C48.3766 83.1919 45.7282 88.1643 45.4339 82.0219C45.4339 82.0219 40.7257 83.4844 41.9027 79.9744C41.9027 79.9744 34.8404 86.7018 33.9576 84.6544C33.9576 84.6544 14.2419 108.932 11.2993 111.564C8.35661 114.197 4.53117 116.244 8.94514 110.394C8.94514 110.394 37.783 72.662 40.7257 70.0295C40.7257 70.0295 43.3741 66.227 43.9626 65.3495C44.5511 64.472 46.3167 59.7921 46.0224 55.9896C46.0224 55.9896 45.4339 54.2346 45.1397 53.6496C45.1397 53.6496 42.197 53.3571 42.197 51.6021C42.197 51.6021 39.2544 51.0171 39.2544 49.5546C39.2544 49.5546 35.7232 49.2621 36.0175 47.2146C36.0175 47.2146 31.3092 46.3372 31.3092 43.4122C31.3092 43.4122 27.4838 42.5347 28.0723 40.1947C28.0723 40.1947 23.9526 39.3172 24.8354 36.9772C24.8354 36.9772 20.4214 34.9297 21.8928 33.1748C21.8928 33.1748 18.0673 32.0048 18.9501 29.9573C18.9501 29.9573 15.1247 28.7873 16.3017 26.1548C16.3017 26.1548 10.4165 22.9373 13.0648 21.7673C13.0648 21.7673 8.35661 19.7199 10.4165 18.8424C10.4165 18.8424 2.47132 16.2099 8.35661 15.9174C8.35661 15.9174 -7.82793 7.43495 8.94514 13.2849C8.94514 13.2849 1.58853 8.89744 1 6.55746C1 6.55746 6.00249 10.3599 7.76808 10.6524C7.76808 10.6524 0.705736 3.63248 1.58853 3.33998C1.58853 3.33998 7.47382 9.48244 10.4165 10.6524C10.4165 10.6524 3.35411 1.87749 3.35411 1.2925C3.35411 0.707502 3.94264 1 3.94264 1Z" stroke="#080000"/>
<path fill-rule="evenodd" clip-rule="evenodd" d="M34.9375 83.5441C35.5055 81.8348 42.0727 72.9155 43.4417 72.3662C43.4417 72.3662 41.6822 80.8967 47.2539 70.8954C47.2539 70.8954 43.7349 84.1324 52.2391 71.1896C52.2391 71.1896 53.7565 103.916 53.7053 105.9C53.6542 107.884 51.9458 107.077 51.3594 105.312C50.7729 103.547 50.9203 99.8497 51.3594 88.8389C51.3594 88.8389 48.4269 90.6039 49.3066 82.6617C49.3066 82.6617 46.3741 87.9565 46.3741 81.7792C46.3741 81.7792 41.0957 83.25 43.1484 79.426C43.1484 79.426 39.6295 83.25 36.4037 85.0149C34.8673 85.8555 34.6443 84.4266 34.9375 83.5441Z" fill="#140D0A"/>
<path fill-rule="evenodd" clip-rule="evenodd" d="M34.9375 83.5441C35.5055 81.8348 42.0727 72.9155 43.4417 72.3662C43.4417 72.3662 41.6822 80.8967 47.2539 70.8954C47.2539 70.8954 43.7349 84.1324 52.2391 71.1896C52.2391 71.1896 53.7565 103.916 53.7053 105.9C53.6542 107.884 51.9458 107.077 51.3594 105.312C50.7729 103.547 50.9203 99.8497 51.3594 88.8389C51.3594 88.8389 48.4269 90.6039 49.3066 82.6617C49.3066 82.6617 46.3741 87.9565 46.3741 81.7792C46.3741 81.7792 41.0957 83.25 43.1484 79.426C43.1484 79.426 39.6295 83.25 36.4037 85.0149C34.8673 85.8555 34.6443 84.4266 34.9375 83.5441Z" fill="url(#paint1_linear)" fill-opacity="0.5" style="mix-blend-mode:lighten"/>
<path fill-rule="evenodd" clip-rule="evenodd" d="M34.9375 83.5441C35.5055 81.8348 42.0727 72.9155 43.4417 72.3662C43.4417 72.3662 41.6822 80.8967 47.2539 70.8954C47.2539 70.8954 43.7349 84.1324 52.2391 71.1896C52.2391 71.1896 53.7565 103.916 53.7053 105.9C53.6542 107.884 51.9458 107.077 51.3594 105.312C50.7729 103.547 50.9203 99.8497 51.3594 88.8389C51.3594 88.8389 48.4269 90.6039 49.3066 82.6617C49.3066 82.6617 46.3741 87.9565 46.3741 81.7792C46.3741 81.7792 41.0957 83.25 43.1484 79.426C43.1484 79.426 39.6295 83.25 36.4037 85.0149C34.8673 85.8555 34.6443 84.4266 34.9375 83.5441Z" stroke="black"/>
<path fill-rule="evenodd" clip-rule="evenodd" d="M52.3268 37.6601C52.3268 37.6601 54.0851 38.5703 48.8101 48.5822C48.8101 48.5822 48.8101 49.189 50.2753 50.4026C50.2753 50.4026 51.1545 51.3127 48.2239 57.684C48.2239 57.684 47.9309 58.8975 49.3962 57.684C49.3962 57.684 46.7586 70.4264 57.6018 63.145C57.6018 63.145 68.445 55.2568 67.8589 42.211C67.8589 42.211 68.445 41.3008 68.7381 40.9974C69.0311 40.694 69.3242 39.7839 69.6172 39.1771C69.9103 38.5703 71.9617 34.3228 66.3936 32.1991C60.8255 30.0753 58.481 34.0194 57.6018 35.8398C57.2033 36.6649 56.071 38.0203 54.9643 38.2669C53.8576 38.5135 52.3268 37.6601 52.3268 37.6601Z" fill="#E2D7D0" stroke="black" stroke-width="0.5"/>
<path fill-rule="evenodd" clip-rule="evenodd" d="M66.2933 38.6627C66.2933 38.6627 69.0466 39.324 69.3525 39.6546C69.6585 39.9852 69.9644 39.9852 71.7999 42.2996C71.7999 42.2996 71.7999 42.9609 69.9644 42.2996C68.1288 41.6384 66.2933 39.9852 66.2933 39.9852V38.6627Z" fill="#140D0A" stroke="black"/>
<path fill-rule="evenodd" clip-rule="evenodd" d="M51.2773 61.4987C50.9617 61.7308 50.3304 63.1236 50.646 63.5878L51.2773 62.6593C51.2773 62.6593 51.2773 64.0521 51.2773 63.82C51.2773 63.82 51.9086 62.8915 51.9086 62.6593C51.9086 62.6593 52.5399 63.1236 52.2243 63.3557C52.2243 63.3557 53.1712 63.82 52.8556 62.1951C52.8556 62.1951 51.593 61.2666 51.2773 61.4987Z" fill="#140D0A" stroke="black"/>
<path fill-rule="evenodd" clip-rule="evenodd" d="M58.4261 60.6753C58.4261 60.6753 57.6399 61.5998 57.6399 62.5243C57.6399 63.4489 57.7971 62.8325 57.7971 62.8325C57.7971 62.8325 58.4261 61.908 58.4261 60.9835C58.4261 60.0589 58.4261 60.6753 58.4261 60.6753Z" fill="#140D0A" stroke="black"/>
<path fill-rule="evenodd" clip-rule="evenodd" d="M62.6417 36.3782C63.4167 36.1003 63.9334 36.6561 63.9334 37.2118C63.9334 37.7676 63.4167 38.0455 62.9 37.7676C62.3833 37.4897 62.125 36.9339 62.6417 36.3782Z" fill="#140D0A" stroke="black"/>
<path d="M92.6172 105.164C93.7422 105.164 94.1875 103.055 95.2422 97.6172C96.1094 91.8281 97.2578 82.7812 98.6875 70.4297C98.6875 69.6797 98.6875 69.1172 97.7031 69.1172C97.1641 69.1172 96.5078 69.1172 96.3906 69.7734C95.0781 82.8516 93.7656 92.9531 92.4531 100.078C89.6406 91.9453 87.9531 88.0312 87.3906 87.9609C87.0625 87.9141 86.7578 87.9141 86.4062 87.9609C85.6094 88.0781 84.625 91.125 83.4531 98.6016L80.125 72.3984C79.7031 69.1406 79.6094 67.8281 78.8594 67.6406C77.7812 67.3828 77.2891 67.7109 77.3828 68.625C78.25 76.3828 79.6328 87.1406 81.4844 100.898C81.6484 103.312 82.1875 104.508 83.125 104.508C83.6406 104.508 83.9922 104.367 84.4375 104.016C85.4219 100.57 86.2422 96.6328 86.8984 92.2266C87.2031 92.2266 88.1172 94.5703 89.6641 99.2578C90.625 103.195 91.6094 105.164 92.6172 105.164ZM103.767 104.789H103.931C104.775 104.789 105.197 104.32 105.197 103.359C105.197 93.7734 105.525 87.6094 105.525 85.8047V79.5234C105.525 76.2188 105.267 74.5781 104.728 74.5781H104.259C103.65 74.5781 103.087 74.8359 103.134 75.375C103.181 77.9766 103.322 80.6016 103.298 84.8438C103.251 92.7422 102.97 100.078 102.97 103.992C102.97 104.742 103.626 104.789 103.767 104.789ZM111.987 105.258C112.831 105.234 113.112 104.766 113.112 103.945V102.82C112.784 93.0938 112.62 87.7031 112.62 86.6484L112.643 84.4219C113.182 86.1797 115.62 91.7109 118.409 99.2109C119.745 102.82 120.167 104.789 120.799 104.93C121.01 104.977 121.198 104.977 121.596 104.93C122.721 104.812 123.073 102.75 123.073 99.375V83.6953C123.073 80.4609 123.354 77.8359 123.565 74.5781C123.565 73.7812 123.167 73.4297 121.924 73.7578C121.151 73.9688 120.987 76.5234 120.799 82.0781V98.5547L119.651 95.7891C116.065 87.6094 114.19 82.2656 114.049 79.7578C113.651 76.0312 112.948 74.0156 111.987 73.7578H111.823C111.049 73.7578 110.674 74.1328 110.674 74.9062V75.3984C110.674 75.75 110.651 76.8281 110.604 78.5859C110.51 81.7734 110.346 84.4219 110.346 88.125C110.346 95.1328 110.768 99.5859 110.792 101.508L110.838 104.438C110.838 105 111.096 105.281 111.987 105.258ZM134.808 105.141C139.683 105.141 139.918 102.398 139.66 96.0703C139.519 92.5078 138.933 91.5 136.59 91.6875C134.48 91.8516 133.496 92.6484 133.496 93.4922V94.125C133.566 94.6641 133.847 94.8516 134.644 94.7109C135.113 94.6172 135.699 94.4297 136.449 94.1953C137.152 94.1953 137.527 94.5938 137.527 96.7969C137.527 101.578 137.34 102.844 134.644 102.703C130.379 102.492 130.754 99.0234 130.754 92.9766V91.0312C130.754 86.8828 130.894 83.5078 131.293 80.8125C131.738 77.7891 132.418 76.2891 134.48 76.2891C137.152 76.2891 137.715 77.1328 137.715 79.8516V81.7969C137.832 82.6641 138.207 83.0859 138.863 83.0859C140.012 83.0859 139.988 82.4297 139.988 81.3047V78.2344C139.988 75.2578 138.394 74.3672 133.824 74.0156C132.769 74.0156 131.035 74.5078 130.426 75.4688C129.019 77.6953 128.316 83.1562 128.316 91.8516C128.316 93.9141 128.269 97.6641 128.644 100.148C129.137 103.477 130.707 105.141 134.808 105.141ZM148.185 105.117C152.778 105.727 153.833 103.5 153.833 96.8203C153.833 92.9531 153.435 90.2344 151.583 89.0625C148.442 87.0703 146.567 84.9375 146.567 81.4922C146.567 78.2578 147.317 76.6406 148.841 76.6406C150.974 76.6406 151.677 77.0625 151.583 79.3828C151.513 80.9297 151.255 81.8672 151.091 83.1094C151.091 83.4844 151.349 84.0703 152.052 84.0703C153.341 84.0703 153.833 82.7812 153.833 79.2422C153.833 75.9844 152.192 74.3906 149.802 74.3906C148.138 74.3906 147.411 74.4609 146.567 75.0469C145.255 75.9844 144.482 77.7422 144.482 80.5312V82.125C144.482 85.6172 146.286 88.2656 149.474 90.375C151.63 91.8047 151.583 93.0469 151.583 96.6562C151.583 101.227 151.138 102.961 149.146 102.961C147.317 102.961 146.567 101.508 146.403 98.6016C146.239 95.6953 146.708 94.1484 146.732 93.9141C146.825 93.1875 146.122 92.9531 145.114 93.1172C144.482 93.2109 144.013 94.9688 144.153 98.6016C144.317 103.055 145.911 104.812 148.185 105.117ZM159.873 105.328H160.53C160.858 105.328 161.233 105.164 161.186 104.836C160.741 98.6953 160.53 94.7109 160.53 93.375C161.092 93.375 162.1 93.4688 163.295 93.0469C166.272 91.9688 168.264 89.2734 168.053 83.3438C167.866 78.0703 165.803 74.1094 160.858 74.1094C160.389 74.1094 159.475 74.1094 159.077 74.3203C158.373 74.8594 157.928 77.0859 157.928 82.4062C158.162 91.9688 158.42 97.2891 158.491 98.8125C158.678 103.125 159.006 105.328 159.873 105.328ZM160.366 91.1719C160.248 86.9531 160.202 83.9297 160.202 82.0781C160.202 79.7109 160.319 77.8125 160.53 76.3828H160.858C164.608 76.5 165.545 78.8906 165.897 84.0234C166.202 88.4297 164.116 91.1719 160.366 91.1719ZM173.343 105.422C174.304 105.422 174.445 105.023 174.468 104.602L174.375 91.9922C179.203 92.1562 182.695 92.4141 183.937 92.4141L183.445 102.984C183.445 103.477 183.539 104.109 184.406 104.109C185.226 104.109 185.718 103.898 185.718 103.148C186.047 94.5938 186.211 89.2266 186.211 87C186.211 82.1484 186.093 78.5859 185.062 76.7344C183.937 74.7422 182.039 74.1328 179.367 74.1328C178.265 74.1328 176.812 74.5078 174.961 75.2812C172.781 76.4062 171.562 79.4062 171.703 84.2344C171.843 88.8984 172.195 92.2266 172.195 94.1719V103.781C172.195 104.883 172.57 105.422 173.343 105.422ZM183.937 90.1406C182.836 90.1406 179.554 90.0234 174.14 89.8125C174.023 87.3516 173.976 84.6562 173.976 84.0703C174.187 78.2109 174.586 76.875 179.531 76.4062H179.695C183.515 76.4062 183.937 79.4297 183.937 84.3984V90.1406ZM192.415 105.258C193.259 105.234 193.54 104.766 193.54 103.945V102.82C193.212 93.0938 193.048 87.7031 193.048 86.6484L193.071 84.4219C193.61 86.1797 196.048 91.7109 198.837 99.2109C200.173 102.82 200.595 104.789 201.228 104.93C201.438 104.977 201.626 104.977 202.024 104.93C203.149 104.812 203.501 102.75 203.501 99.375V83.6953C203.501 80.4609 203.782 77.8359 203.993 74.5781C203.993 73.7812 203.595 73.4297 202.353 73.7578C201.579 73.9688 201.415 76.5234 201.228 82.0781V98.5547L200.079 95.7891C196.493 87.6094 194.618 82.2656 194.478 79.7578C194.079 76.0312 193.376 74.0156 192.415 73.7578H192.251C191.478 73.7578 191.103 74.1328 191.103 74.9062V75.3984C191.103 75.75 191.079 76.8281 191.032 78.5859C190.938 81.7734 190.774 84.4219 190.774 88.125C190.774 95.1328 191.196 99.5859 191.22 101.508L191.267 104.438C191.267 105 191.524 105.281 192.415 105.258ZM237.988 104.906C238.48 104.836 238.996 104.438 238.832 103.734C238.48 101.766 238.269 98.9297 238.152 95.2266C238.152 76.4531 238.48 67.6875 238.832 67.0547C238.832 66.2344 238.175 66.0469 237.988 66.0469H237.66C237.402 66.0469 237.191 66.0938 236.98 66.2109C236.207 66.7266 235.808 72.6094 235.808 85.3828C230.722 84.8203 227.371 84.5625 225.144 84.5625V83.0625C225.144 80.8359 224.933 76.6641 224.488 70.5469V68.0391C224.488 67.4531 224.441 66.8438 223.644 66.7266H222.988C222.238 66.8438 222.144 67.4062 222.144 67.5469C222.074 68.6484 222.074 69.6094 222.144 70.875C222.496 77.1328 222.8 80.6719 222.8 81.5625V89.2266C222.8 93.6797 222.964 98.625 223.316 104.062C223.316 104.602 223.808 104.742 223.972 104.742C224.769 104.742 225.496 104.648 225.472 104.133C225.261 95.625 225.144 90.1406 225.144 88.5703V86.9062C228.707 87 232.246 87.2109 235.808 87.5625V93.3984C235.808 101.062 236.347 104.578 237.144 104.836C237.496 104.953 237.707 104.93 237.988 104.906ZM247.333 104.648C250.497 104.648 254.505 104.742 254.505 103.172C254.505 102.422 254.177 102.047 253.52 102.047C251.177 102.281 249.442 102.375 247.333 102.375C246.466 102.375 246.02 100.336 246.02 92.5078V90.2109C250.684 90.0703 253.028 89.6484 253.028 88.9219V88.1016C253.028 87.4219 252.559 87.4453 252.395 87.4453C249.278 87.7734 247.216 87.9375 246.184 87.9375C246.302 84.9375 246.512 80.625 246.606 77.5781C246.887 77.1797 249.536 77.0859 250.919 77.0859H253.028C253.473 77.0859 253.684 76.5469 253.684 75.9609V75.6328C253.708 75.0469 252.958 74.8125 252.395 74.8125H251.575C246.794 74.8125 244.075 75.3984 244.239 77.0859C244.356 78.3047 243.958 82.4062 243.747 88.6641C243.536 94.7344 243.958 99 244.239 101.133C244.614 104.086 244.825 104.648 247.333 104.648ZM263.006 104.906H267.061C268.045 104.906 268.537 104.461 268.537 103.594C268.537 102.938 268.303 102.633 267.717 102.633H262.842C261.74 102.633 261.295 100.43 261.389 96.0938C261.623 85.8984 262.186 80.3438 262.186 74.7891C262.115 74.7891 262.303 74.2969 261.365 74.1328H261.201C260.334 74.1328 259.912 74.8828 259.912 76.4062C259.373 89.8125 259.092 96.7031 259.092 97.1016V98.5547C259.092 102.797 260.404 104.906 263.006 104.906ZM273.992 105.328H274.648C274.976 105.328 275.351 105.164 275.304 104.836C274.859 98.6953 274.648 94.7109 274.648 93.375C275.21 93.375 276.218 93.4688 277.413 93.0469C280.39 91.9688 282.382 89.2734 282.171 83.3438C281.984 78.0703 279.921 74.1094 274.976 74.1094C274.507 74.1094 273.593 74.1094 273.195 74.3203C272.492 74.8594 272.046 77.0859 272.046 82.4062C272.281 91.9688 272.538 97.2891 272.609 98.8125C272.796 103.125 273.124 105.328 273.992 105.328ZM274.484 91.1719C274.367 86.9531 274.32 83.9297 274.32 82.0781C274.32 79.7109 274.437 77.8125 274.648 76.3828H274.976C278.726 76.5 279.663 78.8906 280.015 84.0234C280.32 88.4297 278.234 91.1719 274.484 91.1719ZM289.196 104.648C292.36 104.648 296.368 104.742 296.368 103.172C296.368 102.422 296.04 102.047 295.383 102.047C293.04 102.281 291.305 102.375 289.196 102.375C288.329 102.375 287.883 100.336 287.883 92.5078V90.2109C292.548 90.0703 294.891 89.6484 294.891 88.9219V88.1016C294.891 87.4219 294.423 87.4453 294.258 87.4453C291.141 87.7734 289.079 87.9375 288.048 87.9375C288.165 84.9375 288.376 80.625 288.469 77.5781C288.751 77.1797 291.399 77.0859 292.782 77.0859H294.891C295.337 77.0859 295.548 76.5469 295.548 75.9609V75.6328C295.571 75.0469 294.821 74.8125 294.258 74.8125H293.438C288.657 74.8125 285.938 75.3984 286.102 77.0859C286.219 78.3047 285.821 82.4062 285.61 88.6641C285.399 94.7344 285.821 99 286.102 101.133C286.477 104.086 286.688 104.648 289.196 104.648ZM302.666 105.328C303.369 105.328 303.814 105.047 303.791 104.461L303.135 91.1953L304.752 91.0312C305.127 91.8516 306.018 94.125 307.353 98.4844C308.994 103.875 309.744 104.719 310.096 104.93C310.307 105.047 310.588 105 310.916 104.93C311.338 104.836 311.9 104.414 311.713 103.969C308.596 95.2031 306.955 90.8672 306.838 90.4922C309.744 88.9688 311.057 86.2734 311.057 82.2891C311.057 77.5078 309.486 73.2422 305.08 73.2422H302.924C300.603 73.4766 300.557 75.5859 300.557 79.5469C300.768 87.0938 301.096 95.3438 301.518 104.297C301.518 105 301.869 105.328 302.666 105.328ZM302.971 88.9219C302.971 87.8438 302.924 84.9844 302.83 80.3672C302.83 79.4062 302.783 78.3281 302.877 77.1328C302.971 76.0547 303.299 75.5156 303.955 75.5156H305.572C307.564 75.6562 308.807 78.1172 308.807 81.8203C308.807 86.6484 307.494 88.125 302.971 88.9219Z" fill="black"/>
<defs>
<linearGradient id="paint0_linear" x1="64.5207" y1="79.0559" x2="85.2738" y2="30.4571" gradientUnits="userSpaceOnUse">
<stop stop-color="white" stop-opacity="0.5"/>
<stop offset="1" stop-opacity="0.5"/>
</linearGradient>
<linearGradient id="paint1_linear" x1="40.1411" y1="70.8954" x2="40.1411" y2="86.6997" gradientUnits="userSpaceOnUse">
<stop stop-color="white" stop-opacity="0.5"/>
<stop offset="1" stop-opacity="0.5"/>
</linearGradient>
</defs>
</svg>
