<svg width="512" height="512" fill="none" xmlns="http://www.w3.org/2000/svg"><g filter="url(#filter0_d)" clip-rule="evenodd" clip-path="url(#clip0)"><path fill-rule="evenodd" d="M87.47 54s25.56 41.66 69.11 61.54c43.55 19.88 53.02 34.08 53.02 34.08s15.15 17.05 35.98 24.62 12.3-35.03 51.12-14.2c0 0 8.53 6.63 2.84 17.99l34.09-9.47s7.57-2.84 44.5-2.84c36.92 0 47.33-8.52 77.63-27.46 0 0-9.47 11.36-18.93 17.04 0 0 16.1-4.73 20.82-12.3 0 0-1.89 8.52-18.93 15.15 0 0 10.41-1.9 14.2-4.74 0 0-9.47 9.47-19.88 12.3 0 0 1.9.96 3.79.96 0 0-3.8 3.78-15.15 5.68 0 0 0 .94-.95 1.89 0 0-8.52 6.63-16.1 4.73 0 0-4.73 4.74-17.04 5.68 0 0-7.57 4.74-13.25 4.74 0 0-.95 3.79-8.52 5.68 0 0-5.68 5.68-15.15 5.68 0 0-4.73 8.52-11.36 5.68 0 0-7.58 8.52-12.3 4.73 0 0-7.58 6.63-12.32 4.74 0 0-7.57 8.52-12.3 4.73 0 0-11.37 7.58-15.15 3.79 0 0-2.84 4.73-3.8 3.79 0 0-5.67 9.46-21.77 24.61 0 0-8.52 12.31-9.46 13.26-.95.94 4.73 162.84 1.89 180.83-2.84 17.99-6.63 12.3-7.57 0-.95-12.3-3.8-46.4-2.84-50.18 0 0-5.69 2.84-6.63-7.57-.95-10.42 0-50.18 0-50.18s-8.52 3.78-6.63-18.94c0 0-8.52 16.1-9.47-3.79 0 0-15.15 4.74-11.36-6.62 0 0-22.72 21.77-25.56 15.15 0 0-63.43 78.58-72.9 87.1-9.47 8.52-21.78 15.15-7.58-3.79 0 0 92.79-122.13 102.25-130.65 0 0 8.53-12.31 10.42-15.15 1.9-2.84 7.57-17.99 6.63-30.3 0 0-1.9-5.68-2.84-7.57 0 0-9.47-.95-9.47-6.63 0 0-9.47-1.9-9.47-6.63 0 0-11.36-.94-10.41-7.57 0 0-15.15-2.84-15.15-12.3 0 0-12.31-2.85-10.42-10.42 0 0-13.25-2.84-10.41-10.42 0 0-14.2-6.63-9.47-12.3 0 0-12.3-3.8-9.47-10.42 0 0-12.3-3.79-8.52-12.3 0 0-18.93-10.42-10.41-14.2 0 0-15.15-6.64-8.52-9.48 0 0-25.57-8.52-6.63-9.47 0 0-52.07-27.45 1.9-8.52 0 0-23.68-14.2-25.57-21.77 0 0 16.1 12.3 21.78 13.25 0 0-22.73-22.72-19.89-23.67 0 0 18.94 19.89 28.4 23.67 0 0-22.72-28.4-22.72-30.3 0-1.89 1.9-.94 1.9-.94z" fill="#EA4F3C"/><path fill-rule="evenodd" d="M87.47 54s25.56 41.66 69.11 61.54c43.55 19.88 53.02 34.08 53.02 34.08s15.15 17.05 35.98 24.62 12.3-35.03 51.12-14.2c0 0 8.53 6.63 2.84 17.99l34.09-9.47s7.57-2.84 44.5-2.84c36.92 0 47.33-8.52 77.63-27.46 0 0-9.47 11.36-18.93 17.04 0 0 16.1-4.73 20.82-12.3 0 0-1.89 8.52-18.93 15.15 0 0 10.41-1.9 14.2-4.74 0 0-9.47 9.47-19.88 12.3 0 0 1.9.96 3.79.96 0 0-3.8 3.78-15.15 5.68 0 0 0 .94-.95 1.89 0 0-8.52 6.63-16.1 4.73 0 0-4.73 4.74-17.04 5.68 0 0-7.57 4.74-13.25 4.74 0 0-.95 3.79-8.52 5.68 0 0-5.68 5.68-15.15 5.68 0 0-4.73 8.52-11.36 5.68 0 0-7.58 8.52-12.3 4.73 0 0-7.58 6.63-12.32 4.74 0 0-7.57 8.52-12.3 4.73 0 0-11.37 7.58-15.15 3.79 0 0-2.84 4.73-3.8 3.79 0 0-5.67 9.46-21.77 24.61 0 0-8.52 12.31-9.46 13.26-.95.94 4.73 162.84 1.89 180.83-2.84 17.99-6.63 12.3-7.57 0-.95-12.3-3.8-46.4-2.84-50.18 0 0-5.69 2.84-6.63-7.57-.95-10.42 0-50.18 0-50.18s-8.52 3.78-6.63-18.94c0 0-8.52 16.1-9.47-3.79 0 0-15.15 4.74-11.36-6.62 0 0-22.72 21.77-25.56 15.15 0 0-63.43 78.58-72.9 87.1-9.47 8.52-21.78 15.15-7.58-3.79 0 0 92.79-122.13 102.25-130.65 0 0 8.53-12.31 10.42-15.15 1.9-2.84 7.57-17.99 6.63-30.3 0 0-1.9-5.68-2.84-7.57 0 0-9.47-.95-9.47-6.63 0 0-9.47-1.9-9.47-6.63 0 0-11.36-.94-10.41-7.57 0 0-15.15-2.84-15.15-12.3 0 0-12.31-2.85-10.42-10.42 0 0-13.25-2.84-10.41-10.42 0 0-14.2-6.63-9.47-12.3 0 0-12.3-3.8-9.47-10.42 0 0-12.3-3.79-8.52-12.3 0 0-18.93-10.42-10.41-14.2 0 0-15.15-6.64-8.52-9.48 0 0-25.57-8.52-6.63-9.47 0 0-52.07-27.45 1.9-8.52 0 0-23.68-14.2-25.57-21.77 0 0 16.1 12.3 21.78 13.25 0 0-22.73-22.72-19.89-23.67 0 0 18.94 19.89 28.4 23.67 0 0-22.72-28.4-22.72-30.3 0-1.89 1.9-.94 1.9-.94z" fill="url(#paint0_linear)" style="mix-blend-mode:lighten"/><path d="M87.47 54s25.56 41.66 69.11 61.54c43.55 19.88 53.02 34.08 53.02 34.08s15.15 17.05 35.98 24.62 12.3-35.03 51.12-14.2c0 0 8.53 6.63 2.84 17.99l34.09-9.47s7.57-2.84 44.5-2.84c36.92 0 47.33-8.52 77.63-27.46 0 0-9.47 11.36-18.93 17.04 0 0 16.1-4.73 20.82-12.3 0 0-1.89 8.52-18.93 15.15 0 0 10.41-1.9 14.2-4.74 0 0-9.47 9.47-19.88 12.3 0 0 1.9.96 3.79.96 0 0-3.8 3.78-15.15 5.68 0 0 0 .94-.95 1.89 0 0-8.52 6.63-16.1 4.73 0 0-4.73 4.74-17.04 5.68 0 0-7.57 4.74-13.25 4.74 0 0-.95 3.79-8.52 5.68 0 0-5.68 5.68-15.15 5.68 0 0-4.73 8.52-11.36 5.68 0 0-7.58 8.52-12.3 4.73 0 0-7.58 6.63-12.32 4.74 0 0-7.57 8.52-12.3 4.73 0 0-11.37 7.58-15.15 3.79 0 0-2.84 4.73-3.8 3.79 0 0-5.67 9.46-21.77 24.61 0 0-8.52 12.31-9.46 13.26-.95.94 4.73 162.84 1.89 180.83-2.84 17.99-6.63 12.3-7.57 0-.95-12.3-3.8-46.4-2.84-50.18 0 0-5.69 2.84-6.63-7.57-.95-10.42 0-50.18 0-50.18s-8.52 3.78-6.63-18.94c0 0-8.52 16.1-9.47-3.79 0 0-15.15 4.74-11.36-6.62 0 0-22.72 21.77-25.56 15.15 0 0-63.43 78.58-72.9 87.1-9.47 8.52-21.78 15.15-7.58-3.79 0 0 92.79-122.13 102.25-130.65 0 0 8.53-12.31 10.42-15.15 1.9-2.84 7.57-17.99 6.63-30.3 0 0-1.9-5.68-2.84-7.57 0 0-9.47-.95-9.47-6.63 0 0-9.47-1.9-9.47-6.63 0 0-11.36-.94-10.41-7.57 0 0-15.15-2.84-15.15-12.3 0 0-12.31-2.85-10.42-10.42 0 0-13.25-2.84-10.41-10.42 0 0-14.2-6.63-9.47-12.3 0 0-12.3-3.8-9.47-10.42 0 0-12.3-3.79-8.52-12.3 0 0-18.93-10.42-10.41-14.2 0 0-15.15-6.64-8.52-9.48 0 0-25.57-8.52-6.63-9.47 0 0-52.07-27.45 1.9-8.52 0 0-23.68-14.2-25.57-21.77 0 0 16.1 12.3 21.78 13.25 0 0-22.73-22.72-19.89-23.67 0 0 18.94 19.89 28.4 23.67 0 0-22.72-28.4-22.72-30.3 0-1.89 1.9-.94 1.9-.94z" stroke="#080000" stroke-width="2"/><path fill-rule="evenodd" d="M184.04 321.94c1.83-5.5 23.03-34.21 27.46-35.98 0 0-5.69 27.46 12.3-4.73 0 0-11.36 42.6 16.1.94 0 0 4.9 105.33 4.73 111.72-.16 6.39-5.68 3.79-7.57-1.9-1.9-5.67-1.42-17.57 0-53.01 0 0-9.47 5.68-6.63-19.88 0 0-9.47 17.04-9.47-2.85 0 0-17.04 4.74-10.41-7.57 0 0-11.36 12.3-21.78 17.99-4.96 2.7-5.68-1.9-4.73-4.73z" fill="#140D0A"/><path fill-rule="evenodd" d="M184.04 321.94c1.83-5.5 23.03-34.21 27.46-35.98 0 0-5.69 27.46 12.3-4.73 0 0-11.36 42.6 16.1.94 0 0 4.9 105.33 4.73 111.72-.16 6.39-5.68 3.79-7.57-1.9-1.9-5.67-1.42-17.57 0-53.01 0 0-9.47 5.68-6.63-19.88 0 0-9.47 17.04-9.47-2.85 0 0-17.04 4.74-10.41-7.57 0 0-11.36 12.3-21.78 17.99-4.96 2.7-5.68-1.9-4.73-4.73z" fill="url(#paint1_linear)" fill-opacity=".5" style="mix-blend-mode:lighten"/><path d="M184.04 321.94c1.83-5.5 23.03-34.21 27.46-35.98 0 0-5.69 27.46 12.3-4.73 0 0-11.36 42.6 16.1.94 0 0 4.9 105.33 4.73 111.72-.16 6.39-5.68 3.79-7.57-1.9-1.9-5.67-1.42-17.57 0-53.01 0 0-9.47 5.68-6.63-19.88 0 0-9.47 17.04-9.47-2.85 0 0-17.04 4.74-10.41-7.57 0 0-11.36 12.3-21.78 17.99-4.96 2.7-5.68-1.9-4.73-4.73z" stroke="#000"/><path fill-rule="evenodd" d="M243.69 173.3s5.68 2.83-11.37 34.08c0 0 0 1.89 4.74 5.68 0 0 2.84 2.84-6.63 22.72 0 0-.95 3.79 3.79 0 0 0-8.52 39.76 26.5 17.04 0 0 35.04-24.61 33.14-65.32 0 0 1.9-2.85 2.84-3.8.95-.94 1.9-3.78 2.84-5.67.95-1.9 7.58-15.15-10.41-21.78-17.99-6.63-25.56 5.68-28.4 11.36-1.3 2.58-4.95 6.8-8.52 7.58-3.58.77-8.53-1.9-8.53-1.9z" fill="#E2D7D0" stroke="#000"/><path fill-rule="evenodd" d="M288.18 174.24s8.52 1.9 9.47 2.84c.95.95 1.9.95 7.58 7.57 0 0 0 1.9-5.69 0-5.68-1.89-11.36-6.62-11.36-6.62v-3.79zM237.06 249.03c-.95.95-2.84 6.63-1.9 8.53l1.9-3.8v4.74s1.9-3.78 1.9-4.73c0 0 1.88 1.9.94 2.84 0 0 2.84 1.9 1.9-4.74 0 0-3.8-3.78-4.74-2.84zM264.51 246.2s-4.73 2.84-4.73 5.68.95.94.95.94 3.78-2.84 3.78-5.68v-.95zM277.77 166.67c2.84-.95 4.73.94 4.73 2.84 0 1.89-1.9 2.84-3.79 1.89-1.89-.95-2.83-2.84-.94-4.73z" fill="#140D0A" stroke="#000"/></g><defs><linearGradient id="paint0_linear" x1="282.37" y1="306.65" x2="349.83" y2="149.64" gradientUnits="userSpaceOnUse"><stop stop-color="#fff" stop-opacity=".5"/><stop offset="1" stop-opacity=".5"/></linearGradient><linearGradient id="paint1_linear" x1="200.84" y1="281.23" x2="200.84" y2="332.09" gradientUnits="userSpaceOnUse"><stop stop-color="#fff" stop-opacity=".5"/><stop offset="1" stop-opacity=".5"/></linearGradient><clipPath id="clip0"><path fill="#fff" d="M0 0h512v512H0z"/></clipPath><filter id="filter0_d" x="52.34" y="28.76" width="446.29" height="470.61" filterUnits="userSpaceOnUse" color-interpolation-filters="sRGB"><feFlood flood-opacity="0" result="BackgroundImageFix"/><feColorMatrix in="SourceAlpha" values="0 0 0 0 0 0 0 0 0 0 0 0 0 0 0 0 0 0 127 0"/><feOffset dx="8" dy="8"/><feGaussianBlur stdDeviation="16"/><feColorMatrix values="0 0 0 0 0 0 0 0 0 0 0 0 0 0 0 0 0 0 0.25 0"/><feBlend in2="BackgroundImageFix" result="effect1_dropShadow"/><feBlend in="SourceGraphic" in2="effect1_dropShadow" result="shape"/></filter></defs></svg>